<svg width="244" height="246" viewBox="0 0 244 246" fill="none" xmlns="http://www.w3.org/2000/svg">
<rect x="91" y="12" width="153" height="53" fill="#C4C4C4"/>
<rect x="105" width="119" height="12" fill="#C4C4C4"/>
<rect x="127" y="23" width="16" height="15" fill="white"/>
<rect x="91" y="65" width="61" height="48" fill="#C4C4C4"/>
<rect x="152" y="64" width="16" height="24" fill="#C4C4C4"/>
<rect x="167" y="77" width="53" height="11" fill="#C4C4C4"/>
<rect x="152" y="122" width="33" height="10" fill="#C4C4C4"/>
<rect x="174" y="132" width="11" height="12" fill="#C4C4C4"/>
<rect x="91" y="113" width="61" height="62" fill="#C4C4C4"/>
<rect x="82" y="122" width="61" height="62" fill="#C4C4C4"/>
<rect x="60" y="139" width="61" height="55" fill="#C4C4C4"/>
<rect x="70" y="132" width="61" height="62" fill="#C4C4C4"/>
<rect x="50" y="148" width="38" height="44" fill="#C4C4C4"/>
<rect x="105" y="194" width="15" height="22" fill="#C4C4C4"/>
<rect x="43" y="216" width="15" height="12" fill="#C4C4C4"/>
<rect x="110" y="216" width="10" height="30" fill="#C4C4C4"/>
<rect x="120" y="237" width="14" height="9" fill="#C4C4C4"/>
<rect x="32" y="156" width="51" height="38" fill="#C4C4C4"/>
<rect x="21" y="148" width="11" height="46" fill="#C4C4C4"/>
<path d="M0 122H11V170H0V122Z" fill="#C4C4C4"/>
<rect x="10" y="139" width="11" height="45" fill="#C4C4C4"/>
<rect x="43" y="205" width="45" height="11" fill="#C4C4C4"/>
<rect x="35" y="194" width="62" height="11" fill="#C4C4C4"/>
<rect x="48" y="228" width="10" height="18" fill="#C4C4C4"/>
<rect x="58" y="237" width="12" height="9" fill="#C4C4C4"/>
<rect x="58" y="216" width="12" height="8" fill="#C4C4C4"/>
</svg>
